<svg width="49" height="48" viewBox="0 0 49 48" fill="none" xmlns="http://www.w3.org/2000/svg">
<path d="M24.4981 16.5118C20.0255 16.4375 15.3999 19.5619 12.4918 22.7629C12.1865 23.1018 12.0176 23.5418 12.0176 23.9979C12.0176 24.454 12.1865 24.8939 12.4918 25.2328C15.3355 28.3661 19.949 31.5638 24.4981 31.4884C29.0472 31.5638 33.6606 28.3661 36.5077 25.2328C36.813 24.8939 36.9819 24.454 36.9819 23.9979C36.9819 23.5418 36.813 23.1018 36.5077 22.7629C33.5963 19.5619 28.9706 16.4375 24.4981 16.5118Z" stroke="#F7AA30" stroke-width="3.6" stroke-linecap="round" stroke-linejoin="round"/>
<path d="M27.5752 24.0007C27.5752 24.6091 27.3948 25.2039 27.0568 25.7098C26.7187 26.2156 26.2383 26.6099 25.6762 26.8427C25.1141 27.0756 24.4956 27.1365 23.8989 27.0178C23.3022 26.8991 22.7541 26.6061 22.3238 26.1759C21.8936 25.7457 21.6007 25.1976 21.482 24.6009C21.3633 24.0041 21.4242 23.3856 21.657 22.8235C21.8898 22.2614 22.2841 21.781 22.79 21.443C23.2959 21.105 23.8906 20.9246 24.499 20.9246C25.3149 20.9246 26.0973 21.2487 26.6742 21.8255C27.2511 22.4024 27.5752 23.1849 27.5752 24.0007Z" stroke="#F7AA30" stroke-width="3.6" stroke-linecap="round" stroke-linejoin="round"/>
<path d="M24.499 2V8.1792" stroke="#F7AA30" stroke-width="3.6" stroke-linecap="round" stroke-linejoin="round"/>
<path d="M24.499 39.8208V46" stroke="#F7AA30" stroke-width="3.6" stroke-linecap="round" stroke-linejoin="round"/>
<path d="M11.5449 32.4238L6.19358 35.5134" stroke="#F7AA30" stroke-width="3.6" stroke-linecap="round" stroke-linejoin="round"/>
<path d="M11.5449 15.5767L6.19358 12.4871" stroke="#F7AA30" stroke-width="3.6" stroke-linecap="round" stroke-linejoin="round"/>
<path d="M38.1484 32.4238L43.4998 35.5134" stroke="#F7AA30" stroke-width="3.6" stroke-linecap="round" stroke-linejoin="round"/>
<path d="M38.1484 15.5767L43.4998 12.4871" stroke="#F7AA30" stroke-width="3.6" stroke-linecap="round" stroke-linejoin="round"/>
<path d="M19.5 4.63158L24.5 2L29.5 4.63158" stroke="#F7AA30" stroke-width="3.6" stroke-linecap="round" stroke-linejoin="round"/>
<path d="M38.5 38.6316L43.5 36V30" stroke="#F7AA30" stroke-width="3.6" stroke-linecap="round" stroke-linejoin="round"/>
<path d="M10.5 9.36841L5.5 12V18" stroke="#F7AA30" stroke-width="3.6" stroke-linecap="round" stroke-linejoin="round"/>
<path d="M10.5 38.6316L5.5 36V30" stroke="#F7AA30" stroke-width="3.6" stroke-linecap="round" stroke-linejoin="round"/>
<path d="M19.5 43.3684L24.5 46L29.5 43.3684" stroke="#F7AA30" stroke-width="3.6" stroke-linecap="round" stroke-linejoin="round"/>
<path d="M38.5 9.36841L43.5 12V18" stroke="#F7AA30" stroke-width="3.6" stroke-linecap="round" stroke-linejoin="round"/>
</svg>
