<svg width="49" height="48" viewBox="0 0 49 48" fill="none" xmlns="http://www.w3.org/2000/svg">
<path fill-rule="evenodd" clip-rule="evenodd" d="M12.8526 31.154C9.80659 28.536 7.63259 25.546 6.61059 24C7.63059 22.454 9.80659 19.464 12.8526 16.846C15.9986 14.144 19.8826 12 24.2506 12C28.6186 12 32.5026 14.144 35.6486 16.846C38.6946 19.464 40.8686 22.454 41.8906 24C40.8706 25.546 38.6946 28.536 35.6486 31.154C32.5026 33.856 28.6186 36 24.2506 36C19.8826 36 15.9986 33.856 12.8526 31.154ZM24.2506 8C18.5466 8 13.7646 10.79 10.2466 13.812C6.71659 16.846 4.26659 20.276 3.17859 21.94C2.77666 22.5519 2.5625 23.2679 2.5625 24C2.5625 24.7321 2.77666 25.4481 3.17859 26.06C4.26659 27.724 6.71659 31.154 10.2466 34.188C13.7666 37.21 18.5466 40 24.2506 40C29.9546 40 34.7366 37.21 38.2546 34.188C41.7846 31.154 44.2346 27.724 45.3226 26.06C46.1446 24.804 46.1446 23.198 45.3226 21.94C44.2346 20.276 41.7846 16.846 38.2546 13.812C34.7346 10.79 29.9546 8 24.2506 8ZM20.2506 24C20.2506 22.9391 20.672 21.9217 21.4222 21.1716C22.1723 20.4214 23.1897 20 24.2506 20C25.3115 20 26.3289 20.4214 27.079 21.1716C27.8292 21.9217 28.2506 22.9391 28.2506 24C28.2506 25.0609 27.8292 26.0783 27.079 26.8284C26.3289 27.5786 25.3115 28 24.2506 28C23.1897 28 22.1723 27.5786 21.4222 26.8284C20.672 26.0783 20.2506 25.0609 20.2506 24ZM24.2506 16C22.1289 16 20.094 16.8429 18.5937 18.3431C17.0934 19.8434 16.2506 21.8783 16.2506 24C16.2506 26.1217 17.0934 28.1566 18.5937 29.6569C20.094 31.1571 22.1289 32 24.2506 32C26.3723 32 28.4072 31.1571 29.9074 29.6569C31.4077 28.1566 32.2506 26.1217 32.2506 24C32.2506 21.8783 31.4077 19.8434 29.9074 18.3431C28.4072 16.8429 26.3723 16 24.2506 16Z" fill="#F7AA30"/>
</svg>
