<svg width="49" height="48" viewBox="0 0 49 48" fill="none" xmlns="http://www.w3.org/2000/svg">
<path d="M15.5114 21.8445L7.67934 25.7606C7.26778 25.9663 7.00781 26.387 7.00781 26.8471V35.6713C7.00781 36.1315 7.26778 36.5521 7.67934 36.7579L14.9681 40.4023C15.3101 40.5733 15.7127 40.5733 16.0547 40.4023L23.4717 36.6938C23.8137 36.5228 24.2163 36.5228 24.5583 36.6938L31.9754 40.4023C32.3174 40.5733 32.7199 40.5733 33.0619 40.4023L40.3507 36.7579C40.7623 36.5521 41.0222 36.1315 41.0222 35.6713V26.8471C41.0222 26.387 40.7623 25.9663 40.3507 25.7606L32.5186 21.8445M32.5186 21.8602V12.2852C32.5186 11.8251 32.2587 11.4044 31.8471 11.1987L24.5583 7.55426C24.2163 7.38326 23.8137 7.38326 23.4717 7.55426L16.1829 11.1987C15.7714 11.4044 15.5114 11.8251 15.5114 12.2852V21.8602" stroke="#F7AA30" stroke-width="3.6" stroke-linecap="round"/>
<path d="M15.3555 21.8446L23.8591 26.0964L32.3627 21.8446" stroke="#F7AA30" stroke-width="3.6" stroke-linecap="round"/>
<path d="M7.00781 26.2007L15.3034 30.348L23.807 26.0962L32.3107 30.348L40.6062 26.2003" stroke="#F7AA30" stroke-width="3.6" stroke-linecap="round"/>
<path d="M31.9465 11.6392L23.651 15.7869L15.3555 11.6392" stroke="#F7AA30" stroke-width="3.6" stroke-linecap="round"/>
<path d="M33.3027 29.9313V39.9673" stroke="#F7AA30" stroke-width="3.6" stroke-linecap="round"/>
<path d="M23.7021 15.7908V36.4255" stroke="#F7AA30" stroke-width="3.6" stroke-linecap="round"/>
<path d="M15.1504 30V40.0417" stroke="#F7AA30" stroke-width="3.6" stroke-linecap="round"/>
</svg>
