<svg width="49" height="48" viewBox="0 0 49 48" fill="none" xmlns="http://www.w3.org/2000/svg">
<path fill-rule="evenodd" clip-rule="evenodd" d="M24.7504 12C22.6287 12 20.5939 12.8429 19.0936 14.3431C17.5933 15.8434 16.7504 17.8783 16.7504 20V22H14.7504C13.8312 22 12.9209 22.1811 12.0716 22.5328C11.2224 22.8846 10.4507 23.4002 9.80067 24.0503C9.15066 24.7003 8.63504 25.4719 8.28326 26.3212C7.93148 27.1705 7.75042 28.0807 7.75042 29C7.75042 29.9193 7.93148 30.8295 8.28326 31.6788C8.63504 32.5281 9.15066 33.2997 9.80067 33.9497C10.4507 34.5998 11.2224 35.1154 12.0716 35.4672C12.9209 35.8189 13.8312 36 14.7504 36H34.7504C35.6697 36 36.5799 35.8189 37.4292 35.4672C38.2785 35.1154 39.0502 34.5998 39.7002 33.9497C40.3502 33.2997 40.8658 32.5281 41.2176 31.6788C41.5694 30.8295 41.7504 29.9193 41.7504 29C41.7504 28.0807 41.5694 27.1705 41.2176 26.3212C40.8658 25.4719 40.3502 24.7003 39.7002 24.0503C39.0502 23.4002 38.2785 22.8846 37.4292 22.5328C36.5799 22.1811 35.6697 22 34.7504 22H32.7504V20C32.7504 17.8783 31.9076 15.8434 30.4073 14.3431C28.907 12.8429 26.8722 12 24.7504 12ZM12.8904 18.156C13.3297 15.3258 14.7666 12.7459 16.9416 10.8825C19.1166 9.019 21.8863 7.99476 24.7504 7.99476C27.6145 7.99476 30.3842 9.019 32.5592 10.8825C34.7342 12.7459 36.1711 15.3258 36.6104 18.156C39.3207 18.6292 41.7553 20.1004 43.4346 22.2797C45.1138 24.459 45.9157 27.1883 45.6823 29.9297C45.4489 32.671 44.197 35.2254 42.1735 37.0894C40.15 38.9535 37.5016 39.9919 34.7504 40H14.7504C11.9922 40.0035 9.33325 38.9707 7.30063 37.1062C5.268 35.2417 4.01003 32.6816 3.77601 29.9333C3.542 27.185 4.34902 24.449 6.03714 22.2677C7.72527 20.0864 10.1713 18.6189 12.8904 18.156Z" fill="#F7AA30"/>
</svg>
