<svg width="49" height="48" viewBox="0 0 49 48" fill="none" xmlns="http://www.w3.org/2000/svg">
<path fill-rule="evenodd" clip-rule="evenodd" d="M39.3844 5.206C39.7193 5.37104 40.0014 5.62655 40.1986 5.94361C40.3958 6.26067 40.5004 6.62661 40.5004 7V14.93L42.2804 16.118C43.5782 16.9831 44.6423 18.1553 45.3783 19.5305C46.1143 20.9057 46.4994 22.4413 46.4994 24.001C46.4994 25.5607 46.1143 27.0963 45.3783 28.4715C44.6423 29.8467 43.5782 31.0189 42.2804 31.884L40.5004 33.07V39C40.5006 39.3702 40.398 39.7333 40.204 40.0487C40.0101 40.3641 39.7324 40.6194 39.402 40.7863C39.0715 40.9532 38.7011 41.0251 38.3322 40.994C37.9633 40.9629 37.6102 40.8299 37.3124 40.61L37.3004 40.6L37.2644 40.574L37.1184 40.466L36.5604 40.066C36.0844 39.73 35.4124 39.262 34.6404 38.746C33.0724 37.702 31.1764 36.524 29.6504 35.81C26.8744 34.51 23.9804 33.544 21.7624 32.9C20.9667 32.6689 20.1665 32.4535 19.3624 32.254C18.588 33.5126 18.3053 35.0126 18.5684 36.4667C18.8315 37.9208 19.622 39.2267 20.7884 40.134C23.2544 42.052 21.9004 46 18.7804 46H12.5004C12.1087 46.0004 11.7255 45.8857 11.3984 45.6702C11.0713 45.4548 10.8147 45.148 10.6604 44.788L9.90036 43.008C8.26054 39.1826 8.17588 34.8688 9.66436 30.982L9.75436 30.746C7.49456 30.1957 5.51486 28.8361 4.18985 26.9246C2.86485 25.0131 2.28645 22.6822 2.56411 20.3729C2.84177 18.0637 3.95622 15.9364 5.69659 14.3934C7.43695 12.8505 9.68251 11.999 12.0084 12H18.5004C18.5538 11.9999 18.6071 12.0019 18.6604 12.006H18.6644L18.7004 12.01L18.8744 12.018C19.9702 12.0575 21.0675 12.0321 22.1604 11.942C24.3084 11.766 27.0764 11.298 29.7084 10.162C31.2184 9.512 33.0884 8.352 34.6484 7.298C35.4768 6.73602 36.2924 6.15521 37.0944 5.556L37.2384 5.448L37.2744 5.42L37.2824 5.414C37.5784 5.18662 37.9322 5.04663 38.3037 5.00987C38.6751 4.97312 39.0495 5.04105 39.3844 5.206ZM16.5004 16H12.0084C10.6168 16.0003 9.277 16.5273 8.25813 17.4751C7.23926 18.4228 6.61687 19.7211 6.51606 21.1089C6.41524 22.4968 6.84347 23.8714 7.71467 24.9565C8.58588 26.0415 9.83549 26.7566 11.2124 26.958L12.7824 27.186L16.5004 27.702V16ZM20.5004 28.416C21.1424 28.576 21.9544 28.792 22.8804 29.062C25.2124 29.738 28.3184 30.772 31.3484 32.188C33.0264 32.974 34.9544 34.164 36.5004 35.182V10.872C34.9584 11.9 33.0164 13.092 31.2924 13.836C28.1264 15.202 24.8924 15.732 22.4904 15.93C21.7464 15.99 21.0764 16.022 20.5004 16.034V28.414V28.416ZM15.2364 31.566L13.8004 31.366L13.4004 32.412C12.2835 35.3271 12.3467 38.5627 13.5764 41.432L13.8184 42H16.9584C15.7264 40.5947 14.9124 38.8726 14.6084 37.0286C14.3045 35.1846 14.5227 33.2924 15.2384 31.566H15.2364ZM40.5004 28.23C41.1255 27.7165 41.6291 27.0708 41.9748 26.3394C42.3206 25.608 42.4999 24.809 42.4999 24C42.4999 23.191 42.3206 22.392 41.9748 21.6606C41.6291 20.9292 41.1255 20.2835 40.5004 19.77V28.23Z" fill="#F7AA30"/>
</svg>
