<svg width="48" height="48" viewBox="0 0 48 48" fill="none" xmlns="http://www.w3.org/2000/svg">
<path fill-rule="evenodd" clip-rule="evenodd" d="M22 8.124C17.9654 8.63737 14.2777 10.6677 11.6864 13.8024C9.09505 16.9371 7.79456 20.9409 8.04924 25.0001C8.30392 29.0592 10.0947 32.869 13.0575 35.6552C16.0203 38.4415 19.9329 39.995 24 40C27.8972 39.9999 31.6605 38.5776 34.5835 36C37.5065 33.4224 39.3884 29.8666 39.876 26H24C23.4696 26 22.9609 25.7893 22.5858 25.4142C22.2107 25.0391 22 24.5304 22 24V8.124ZM26 8.124V22H39.876C39.4308 18.4752 37.8257 15.1987 35.3135 12.6865C32.8013 10.1743 29.5248 8.56917 26 8.124ZM4 24C4 12.954 12.954 4 24 4C35.046 4 44 12.954 44 24C44 35.046 35.046 44 24 44C12.954 44 4 35.046 4 24Z" fill="#F7AA30"/>
</svg>
