<svg width="48" height="48" viewBox="0 0 48 48" fill="none" xmlns="http://www.w3.org/2000/svg">
<path fill-rule="evenodd" clip-rule="evenodd" d="M4 10C4 8.4087 4.63214 6.88258 5.75736 5.75736C6.88258 4.63214 8.4087 4 10 4H38C39.5913 4 41.1174 4.63214 42.2426 5.75736C43.3679 6.88258 44 8.4087 44 10V38C44 39.5913 43.3679 41.1174 42.2426 42.2426C41.1174 43.3679 39.5913 44 38 44H10C8.4087 44 6.88258 43.3679 5.75736 42.2426C4.63214 41.1174 4 39.5913 4 38V10ZM10 8C9.46957 8 8.96086 8.21071 8.58579 8.58579C8.21071 8.96086 8 9.46957 8 10V20H40V10C40 9.46957 39.7893 8.96086 39.4142 8.58579C39.0391 8.21071 38.5304 8 38 8H10ZM8 24V38C8 38.5304 8.21071 39.0391 8.58579 39.4142C8.96086 39.7893 9.46957 40 10 40H38C38.5304 40 39.0391 39.7893 39.4142 39.4142C39.7893 39.0391 40 38.5304 40 38V24H8ZM28 26C28.5304 26.0001 29.039 26.2109 29.414 26.586L37.414 34.586C37.7783 34.9632 37.9799 35.4684 37.9753 35.9928C37.9708 36.5172 37.7605 37.0188 37.3896 37.3896C37.0188 37.7605 36.5172 37.9708 35.9928 37.9753C35.4684 37.9799 34.9632 37.7783 34.586 37.414L28 30.828L23.414 35.414L21.414 37.414C21.0368 37.7783 20.5316 37.9799 20.0072 37.9753C19.4828 37.9708 18.9812 37.7605 18.6104 37.3896C18.2395 37.0188 18.0292 36.5172 18.0247 35.9928C18.0201 35.4684 18.2217 34.9632 18.586 34.586L19.172 34L18 32.828L13.414 37.414C13.0368 37.7783 12.5316 37.9799 12.0072 37.9753C11.4828 37.9708 10.9812 37.7605 10.6104 37.3896C10.2395 37.0188 10.0292 36.5172 10.0247 35.9928C10.0201 35.4684 10.2217 34.9632 10.586 34.586L16.586 28.586C16.9611 28.2111 17.4697 28.0004 18 28.0004C18.5303 28.0004 19.0389 28.2111 19.414 28.586L22 31.172L26.586 26.586C26.961 26.2109 27.4696 26.0001 28 26ZM22 14C22 13.4696 22.2107 12.9609 22.5858 12.5858C22.9609 12.2107 23.4696 12 24 12H34C34.5304 12 35.0391 12.2107 35.4142 12.5858C35.7893 12.9609 36 13.4696 36 14C36 14.5304 35.7893 15.0391 35.4142 15.4142C35.0391 15.7893 34.5304 16 34 16H24C23.4696 16 22.9609 15.7893 22.5858 15.4142C22.2107 15.0391 22 14.5304 22 14ZM14 17.5C14.9283 17.5 15.8185 17.1313 16.4749 16.4749C17.1313 15.8185 17.5 14.9283 17.5 14C17.5 13.0717 17.1313 12.1815 16.4749 11.5251C15.8185 10.8687 14.9283 10.5 14 10.5C13.0717 10.5 12.1815 10.8687 11.5251 11.5251C10.8687 12.1815 10.5 13.0717 10.5 14C10.5 14.9283 10.8687 15.8185 11.5251 16.4749C12.1815 17.1313 13.0717 17.5 14 17.5Z" fill="#F7AA30"/>
</svg>
