<svg width="49" height="48" viewBox="0 0 49 48" fill="none" xmlns="http://www.w3.org/2000/svg">
<path fill-rule="evenodd" clip-rule="evenodd" d="M20.2509 4C19.7205 4 19.2118 4.21071 18.8367 4.58579C18.4616 4.96086 18.2509 5.46957 18.2509 6V9.164C16.8716 9.72268 15.5771 10.4712 14.4049 11.388L11.6629 9.804C11.2036 9.5388 10.6577 9.46693 10.1453 9.6042C9.63297 9.74148 9.19614 10.0767 8.93092 10.536L4.93092 17.464C4.66571 17.9234 4.59384 18.4693 4.73112 18.9816C4.86839 19.4939 5.20357 19.9308 5.66292 20.196L8.40292 21.778C8.1978 23.2522 8.1978 24.7478 8.40292 26.222L5.66292 27.802C5.43521 27.9333 5.23562 28.1083 5.07557 28.3168C4.91552 28.5253 4.79814 28.7633 4.73016 29.0173C4.66217 29.2712 4.64491 29.536 4.67936 29.7966C4.71381 30.0572 4.79929 30.3085 4.93092 30.536L8.93092 37.464C9.19614 37.9233 9.63297 38.2585 10.1453 38.3958C10.6577 38.5331 11.2036 38.4612 11.6629 38.196L14.4049 36.612C15.5669 37.522 16.8609 38.272 18.2509 38.836V42C18.2509 42.5304 18.4616 43.0391 18.8367 43.4142C19.2118 43.7893 19.7205 44 20.2509 44H28.2509C28.7813 44 29.2901 43.7893 29.6651 43.4142C30.0402 43.0391 30.2509 42.5304 30.2509 42V38.836C31.6302 38.2773 32.9247 37.5287 34.0969 36.612L36.8389 38.196C37.2983 38.4612 37.8442 38.5331 38.3565 38.3958C38.8689 38.2585 39.3057 37.9233 39.5709 37.464L43.5709 30.536C43.8361 30.0766 43.908 29.5307 43.7707 29.0184C43.6334 28.5061 43.2983 28.0692 42.8389 27.804L40.0989 26.222C40.304 24.7478 40.304 23.2522 40.0989 21.778L42.8389 20.198C43.0666 20.0667 43.2662 19.8917 43.4263 19.6832C43.5863 19.4747 43.7037 19.2367 43.7717 18.9827C43.8397 18.7288 43.8569 18.464 43.8225 18.2034C43.788 17.9428 43.7025 17.6915 43.5709 17.464L39.5709 10.536C39.3057 10.0767 38.8689 9.74148 38.3565 9.6042C37.8442 9.46693 37.2983 9.5388 36.8389 9.804L34.0969 11.388C32.9247 10.4713 31.6302 9.72271 30.2509 9.164V6C30.2509 5.46957 30.0402 4.96086 29.6651 4.58579C29.2901 4.21071 28.7813 4 28.2509 4H20.2509ZM22.2509 10.58V8H26.2509V10.58C26.2511 11.0108 26.3905 11.43 26.6481 11.7752C26.9058 12.1204 27.268 12.3732 27.6809 12.496C29.4816 13.0338 31.1307 13.9874 32.4949 15.28C32.8079 15.5765 33.2083 15.764 33.6364 15.8144C34.0646 15.8649 34.4976 15.7757 34.8709 15.56L37.1069 14.268L39.1069 17.732L36.8729 19.022C36.5001 19.2372 36.2067 19.5669 36.0363 19.9622C35.8659 20.3575 35.8275 20.7972 35.9269 21.216C36.362 23.0465 36.362 24.9535 35.9269 26.784C35.8275 27.2028 35.8659 27.6425 36.0363 28.0378C36.2067 28.4331 36.5001 28.7628 36.8729 28.978L39.1069 30.268L37.1069 33.732L34.8689 32.44C34.4958 32.2248 34.0632 32.1358 33.6355 32.1863C33.2077 32.2367 32.8077 32.4239 32.4949 32.72C31.1308 34.0127 29.4817 34.9664 27.6809 35.504C27.268 35.6268 26.9058 35.8796 26.6481 36.2248C26.3905 36.57 26.2511 36.9892 26.2509 37.42V40H22.2509V37.42C22.2507 36.9892 22.1114 36.57 21.8537 36.2248C21.5961 35.8796 21.2338 35.6268 20.8209 35.504C19.0202 34.9663 17.3711 34.0126 16.0069 32.72C15.694 32.4235 15.2936 32.236 14.8654 32.1856C14.4372 32.1351 14.0042 32.2243 13.6309 32.44L11.3949 33.732L9.39492 30.268L11.6289 28.978C12.0017 28.7628 12.2951 28.4331 12.4655 28.0378C12.636 27.6425 12.6743 27.2028 12.5749 26.784C12.1399 24.9535 12.1399 23.0465 12.5749 21.216C12.6743 20.7972 12.636 20.3575 12.4655 19.9622C12.2951 19.5669 12.0017 19.2372 11.6289 19.022L9.39492 17.732L11.3949 14.268L13.6309 15.56C14.0042 15.7757 14.4372 15.8649 14.8654 15.8144C15.2936 15.764 15.694 15.5765 16.0069 15.28C17.3711 13.9874 19.0202 13.0338 20.8209 12.496C21.2338 12.3732 21.5961 12.1204 21.8537 11.7752C22.1114 11.43 22.2507 11.0108 22.2509 10.58ZM20.2509 24C20.2509 22.9391 20.6723 21.9217 21.4225 21.1716C22.1726 20.4214 23.1901 20 24.2509 20C25.3118 20 26.3292 20.4214 27.0793 21.1716C27.8295 21.9217 28.2509 22.9391 28.2509 24C28.2509 25.0609 27.8295 26.0783 27.0793 26.8284C26.3292 27.5786 25.3118 28 24.2509 28C23.1901 28 22.1726 27.5786 21.4225 26.8284C20.6723 26.0783 20.2509 25.0609 20.2509 24ZM24.2509 16C22.1292 16 20.0944 16.8429 18.5941 18.3431C17.0938 19.8434 16.2509 21.8783 16.2509 24C16.2509 26.1217 17.0938 28.1566 18.5941 29.6569C20.0944 31.1571 22.1292 32 24.2509 32C26.3726 32 28.4075 31.1571 29.9078 29.6569C31.4081 28.1566 32.2509 26.1217 32.2509 24C32.2509 21.8783 31.4081 19.8434 29.9078 18.3431C28.4075 16.8429 26.3726 16 24.2509 16Z" fill="#F7AA30"/>
</svg>
