<svg width="48" height="48" viewBox="0 0 48 48" fill="none" xmlns="http://www.w3.org/2000/svg">
<path fill-rule="evenodd" clip-rule="evenodd" d="M18.586 2.58597C18.961 2.21089 19.4696 2.00011 20 2H36C37.5913 2 39.1174 2.63211 40.2426 3.75727C41.3679 4.88243 42 6.40848 42 7.9997V17.9992C42 18.5296 41.7893 19.0383 41.4142 19.4134C41.0391 19.7884 40.5304 19.9991 40 19.9991C39.4696 19.9991 38.9609 19.7884 38.5858 19.4134C38.2107 19.0383 38 18.5296 38 17.9992V7.9997C38 7.4693 37.7893 6.96061 37.4142 6.58556C37.0391 6.21051 36.5304 5.9998 36 5.9998H22V15.9993C22 16.5297 21.7893 17.0384 21.4142 17.4134C21.0391 17.7885 20.5304 17.9992 20 17.9992H10V39.9981C10 40.5285 10.2107 41.0372 10.5858 41.4123C10.9609 41.7873 11.4696 41.998 12 41.998H18C18.5304 41.998 19.0391 42.2087 19.4142 42.5838C19.7893 42.9588 20 43.4675 20 43.9979C20 44.5283 19.7893 45.037 19.4142 45.4121C19.0391 45.7871 18.5304 45.9978 18 45.9978H12C10.4087 45.9978 8.88258 45.3657 7.75736 44.2406C6.63214 43.1154 6 41.5893 6 39.9981V15.9993C6.00011 15.4689 6.2109 14.9603 6.586 14.5854L18.586 2.58597ZM12.828 13.9994H18V8.82766L12.828 13.9994ZM29.962 25.6068C30.0136 25.8645 30.0139 26.1298 29.9629 26.3875C29.9119 26.6453 29.8106 26.8905 29.6648 27.1091C29.519 27.3277 29.3315 27.5154 29.1131 27.6616C28.8948 27.8077 28.6497 27.9093 28.392 27.9607L27.404 28.1567C27.2806 28.1811 27.1635 28.2304 27.0597 28.3015C26.9559 28.3726 26.8677 28.464 26.8003 28.5702C26.733 28.6765 26.6879 28.7953 26.6679 28.9195C26.648 29.0437 26.6534 29.1706 26.684 29.2926C27.044 30.7366 26.444 32.2485 25.192 33.0505L23.712 33.9984L25.192 34.9464C26.444 35.7483 27.046 37.2603 26.684 38.7042C26.556 39.2182 26.884 39.7361 27.404 39.8381L28.392 40.0381C28.8967 40.1572 29.3353 40.4677 29.6155 40.904C29.8956 41.3403 29.9954 41.8683 29.8937 42.3767C29.792 42.8852 29.4968 43.3342 29.0704 43.6292C28.644 43.9242 28.1196 44.042 27.608 43.9579L26.618 43.7619C25.3627 43.5109 24.2544 42.7813 23.5276 41.7276C22.8009 40.6739 22.5126 39.3787 22.724 38.1162L18.922 35.6823C18.6396 35.5014 18.4072 35.2523 18.2463 34.9581C18.0853 34.6638 18.001 34.3338 18.001 33.9984C18.001 33.663 18.0853 33.333 18.2463 33.0388C18.4072 32.7445 18.6396 32.4954 18.922 32.3145L22.724 29.8806C22.5126 28.6181 22.8009 27.323 23.5276 26.2692C24.2544 25.2155 25.3627 24.4859 26.618 24.2349L27.608 24.0369C27.8657 23.9853 28.131 23.985 28.3887 24.036C28.6465 24.087 28.8917 24.1883 29.1103 24.3341C29.329 24.4799 29.5167 24.6673 29.6628 24.8857C29.809 25.1041 29.9106 25.3491 29.962 25.6068ZM35.608 40.0361C35.0877 40.1401 34.6299 40.4465 34.3355 40.8879C34.041 41.3294 33.934 41.8697 34.038 42.39C34.142 42.9103 34.4484 43.368 34.8898 43.6625C35.3313 43.9569 35.8716 44.0639 36.392 43.9599L37.38 43.7599C38.6352 43.5094 39.7437 42.7803 40.4708 41.7269C41.198 40.6736 41.4867 39.3787 41.276 38.1162L45.078 35.6823C45.3604 35.5014 45.5928 35.2523 45.7537 34.9581C45.9147 34.6638 45.9991 34.3338 45.9991 33.9984C45.9991 33.663 45.9147 33.333 45.7537 33.0388C45.5928 32.7445 45.3604 32.4954 45.078 32.3145L41.276 29.8806C41.4873 28.6179 41.1988 27.3224 40.4716 26.2686C39.7444 25.2149 38.6356 24.4855 37.38 24.2349L36.392 24.0369C35.8716 23.9329 35.3313 24.0399 34.8898 24.3344C34.4484 24.6288 34.142 25.0865 34.038 25.6068C33.934 26.1272 34.041 26.6675 34.3355 27.1089C34.6299 27.5504 35.0877 27.8568 35.608 27.9607L36.596 28.1567C37.116 28.2607 37.444 28.7787 37.316 29.2926C36.956 30.7366 37.556 32.2485 38.808 33.0505L40.288 33.9984L38.808 34.9464C38.1968 35.3374 37.7237 35.9104 37.4557 36.5846C37.1876 37.2589 37.1381 38.0003 37.314 38.7042C37.3443 38.8259 37.3496 38.9525 37.3296 39.0764C37.3096 39.2002 37.2646 39.3187 37.1975 39.4247C37.1304 39.5307 37.0425 39.622 36.9391 39.693C36.8357 39.7641 36.719 39.8134 36.596 39.8381L35.608 40.0381V40.0361Z" fill="#F7AA30"/>
</svg>
